<svg width="19" height="18" viewBox="0 0 19 18" fill="none" xmlns="http://www.w3.org/2000/svg">
<g clip-path="url(#clip0_19_1168)">
<path d="M18.1088 9.19941C18.1088 8.46153 18.0502 7.92308 17.9233 7.36469H9.67578V10.6951H14.5169C14.4193 11.5228 13.8923 12.7692 12.721 13.6067L12.7046 13.7182L15.3123 15.7821L15.493 15.8005C17.1522 14.235 18.1088 11.9316 18.1088 9.19941" fill="#4285F4"/>
<path d="M9.67577 17.9743C12.0475 17.9743 14.0386 17.1765 15.493 15.8005L12.721 13.6067C11.9792 14.1352 10.9836 14.5042 9.67577 14.5042C7.35281 14.5042 5.38122 12.9387 4.6784 10.7749L4.57538 10.7838L1.86383 12.9277L1.82837 13.0284C3.2729 15.96 6.24007 17.9743 9.67577 17.9743Z" fill="#34A853"/>
<path d="M4.67836 10.7749C4.49292 10.2165 4.3856 9.6182 4.3856 9C4.3856 8.38174 4.49292 7.78347 4.66861 7.22508L4.6637 7.10616L1.91816 4.92786L1.82834 4.97151C1.23298 6.18804 0.891357 7.55415 0.891357 9C0.891357 10.4459 1.23298 11.8119 1.82834 13.0284L4.67836 10.7749" fill="#FBBC05"/>
<path d="M9.67577 3.49573C11.3253 3.49573 12.4379 4.22364 13.0724 4.83194L15.5515 2.35901C14.0289 0.913157 12.0475 0.0256958 9.67577 0.0256958C6.24007 0.0256958 3.2729 2.03991 1.82837 4.97149L4.66864 7.22506C5.38122 5.06126 7.35281 3.49573 9.67577 3.49573" fill="#EB4335"/>
</g>
<defs>
<clipPath id="clip0_19_1168">
<rect x="0.891357" width="17.2174" height="18" rx="8.6087" fill="white"/>
</clipPath>
</defs>
</svg>
